<?xml version="1.0" encoding="UTF-8"?>
<svg version="1.1" xmlns="http://www.w3.org/2000/svg" width="1254" height="1254">
<path d="M0 0 C4.27475297 2.65154724 8.56001893 5.28587546 12.8449707 7.92089844 C15.03749149 9.26949019 17.22938502 10.61910225 19.4206543 11.96972656 C26.61904202 16.40561161 33.83771856 20.80672903 41.06738281 25.19140625 C48.670329 29.80593726 56.21893261 34.49544102 63.72412109 39.26708984 C70.42267024 43.51736743 77.17880951 47.67057626 83.94238281 51.81640625 C92.99741815 57.37055624 101.99608243 63.00265738 110.94604492 68.72436523 C117.60837678 72.98134042 124.29804323 77.19241953 131.00488281 81.37890625 C132.49737549 82.31077759 132.49737549 82.31077759 134.02001953 83.26147461 C139.10355503 86.43365658 144.19006614 89.60101852 149.27832031 92.765625 C161.18622672 100.17885252 173.01184263 107.70023364 184.74707031 115.38378906 C187.83095694 117.39969036 190.92262034 119.4034671 194.0144043 121.40722656 C197.35023254 123.5707465 200.68197816 125.74050334 204.01318359 127.91113281 C206.33641579 129.42452768 208.66037095 130.93678536 210.98486328 132.44824219 C214.54820318 134.76590001 218.1084261 137.08829264 221.66711426 139.41308594 C223.08328826 140.33731735 224.50034092 141.26020402 225.91833496 142.18164062 C241.11607044 152.06048416 252.86430348 159.8287335 258.71582031 177.734375 C261.13743519 190.6420392 258.93327462 203.1494036 251.58691406 214.046875 C246.09363913 221.18960514 239.47194432 225.93595433 231.94238281 230.76171875 C228.52396917 232.98663452 225.17674198 235.31623062 221.81738281 237.62890625 C213.54462478 243.30268562 205.24803797 248.94095364 196.94238281 254.56640625 C196.29995636 255.00153534 195.65752991 255.43666443 194.99563599 255.88497925 C182.39181923 264.42015462 169.77268791 272.9326205 157.1541748 281.44604492 C144.09080489 290.26028639 131.04491875 299.09926022 118.02197266 307.97314453 C114.97308171 310.04811995 111.92096901 312.11828784 108.86816406 314.1875 C97.72657546 321.74285772 86.62713634 329.352416 75.58911133 337.05834961 C69.06986981 341.60536473 62.51703607 346.09994873 55.94238281 350.56640625 C49.02906124 355.26330837 42.15289797 360.00699101 35.31738281 364.81640625 C26.82134228 370.79265046 18.24590914 376.64606991 9.64086914 382.46411133 C4.37789568 386.02867342 -0.85883368 389.62253192 -6.04589844 393.296875 C-32.56418253 412.07303442 -32.56418253 412.07303442 -42.87011719 413.94140625 C-42.86643002 414.81678669 -42.86274284 415.69216713 -42.85894394 416.59407425 C-42.77047132 437.92858035 -42.70434848 459.26305468 -42.6628685 480.59770584 C-42.64227411 490.91513929 -42.61421336 501.23245002 -42.56835938 511.54980469 C-42.52839584 520.546096 -42.50266169 529.5422984 -42.49376321 538.53867602 C-42.48856455 543.29887832 -42.47641129 548.05882632 -42.44719696 552.81894684 C-42.41987725 557.30708041 -42.41170537 561.79485696 -42.41768646 566.2830658 C-42.41659358 567.92285355 -42.40873881 569.56265429 -42.39329529 571.20236969 C-42.27404892 584.52634152 -43.64151155 595.85806428 -53.28808594 605.80859375 C-59.89338509 611.26471075 -67.88137824 614.07549249 -76.37011719 614.25390625 C-77.51480469 614.29128906 -78.65949219 614.32867188 -79.83886719 614.3671875 C-89.55517456 613.82288453 -97.61929347 608.55263175 -105.30761719 603.06640625 C-106.25137207 602.40801758 -107.19512695 601.74962891 -108.16748047 601.07128906 C-111.07620574 599.03891984 -113.97330053 596.99069995 -116.87011719 594.94140625 C-118.63868819 593.70305456 -120.40818677 592.46602631 -122.17871094 591.23046875 C-125.52095619 588.897155 -128.85921807 586.55833231 -132.19433594 584.21484375 C-136.46271671 581.22007158 -140.75494976 578.26162742 -145.05761719 575.31640625 C-150.52818833 571.57056747 -155.95996921 567.77397791 -161.37011719 563.94140625 C-167.3620778 559.69735497 -173.38660199 555.50607111 -179.4440918 551.35620117 C-185.29123588 547.34735574 -191.11410298 543.30417263 -196.93261719 539.25390625 C-197.9094043 538.57416748 -198.88619141 537.89442871 -199.89257812 537.1940918 C-204.78981758 533.78514277 -209.68487715 530.37310626 -214.57714844 526.95703125 C-226.70062003 518.4979693 -238.89034346 510.14257011 -251.12402344 501.84375 C-256.47184176 498.21534132 -261.80255688 494.56291798 -267.12451172 490.89672852 C-272.13731204 487.44365468 -277.15833924 484.00275797 -282.18261719 480.56640625 C-283.37310669 479.75212158 -283.37310669 479.75212158 -284.58764648 478.92138672 C-287.01503863 477.26124973 -289.44255495 475.6012945 -291.87011719 473.94140625 C-301.52698404 467.33835421 -311.18123987 460.73172374 -320.81884766 454.10058594 C-325.9349292 450.5816149 -331.05760765 447.0723597 -336.18261719 443.56640625 C-337.36694336 442.75586792 -337.36694336 442.75586792 -338.57519531 441.92895508 C-342.68466139 439.11723706 -346.79681046 436.30955345 -350.91308594 433.5078125 C-354.89076071 430.79952568 -358.85904531 428.07797429 -362.82128906 425.34716797 C-364.62714191 424.10811879 -366.44219672 422.88434407 -368.26074219 421.6640625 C-379.03196855 414.23309349 -385.81585661 404.69131957 -388.87011719 391.94140625 C-390.4233783 376.95660459 -388.22574312 364.82917802 -379.26074219 352.51171875 C-373.08647377 345.87337134 -364.97161911 341.32416813 -357.37011719 336.50390625 C-355.74372314 335.4687085 -355.74372314 335.4687085 -354.08447266 334.41259766 C-351.24927588 332.60957499 -348.41073563 330.8118962 -345.57067871 329.01654053 C-343.89425824 327.95666878 -342.21860772 326.89557952 -340.54296875 325.83447266 C-337.36341021 323.82354719 -334.18015556 321.81863902 -330.99511719 319.81640625 C-330.04056641 319.2138501 -329.08601563 318.61129395 -328.10253906 317.99047852 C-307.44601063 305.06205388 -307.44601063 305.06205388 -299.69042969 306.28515625 C-293.26559081 307.92922276 -289.54456974 311.51721439 -285.87011719 316.94140625 C-284.02859346 322.46597743 -284.05313169 327.85146286 -286.49511719 333.19140625 C-289.76968816 338.92473813 -294.24660197 341.66557026 -299.92871094 344.67578125 C-305.5768075 347.7320037 -310.9782846 351.08246804 -316.37011719 354.56640625 C-318.28537078 355.79314205 -320.20073763 357.01970105 -322.11621094 358.24609375 C-324.03425001 359.47775508 -325.9522196 360.70952462 -327.87011719 361.94140625 C-331.38693841 364.19776017 -334.90810512 366.44708881 -338.43261719 368.69140625 C-339.60050781 369.44284912 -339.60050781 369.44284912 -340.79199219 370.20947266 C-344.39442534 372.5008433 -347.8010628 374.5555105 -351.87011719 375.94140625 C-352.09375089 377.35573831 -352.29838195 378.77308243 -352.49511719 380.19140625 C-352.61113281 380.9803125 -352.72714844 381.76921875 -352.84667969 382.58203125 C-352.8744988 385.38248825 -352.32818311 386.56621639 -350.87011719 388.94140625 C-349.0873093 390.49624929 -349.0873093 390.49624929 -346.92138672 391.83544922 C-346.10517853 392.37056122 -345.28897034 392.90567322 -344.44802856 393.45700073 C-343.11395462 394.31166428 -343.11395462 394.31166428 -341.75292969 395.18359375 C-340.82656708 395.78841583 -339.90020447 396.39323792 -338.94577026 397.01638794 C-335.96791036 398.95864396 -332.98205041 400.88813901 -329.99511719 402.81640625 C-326.11959064 405.32984198 -322.2477077 407.84881735 -318.37792969 410.37109375 C-316.94182091 411.30599388 -316.94182091 411.30599388 -315.47669983 412.25978088 C-307.23854703 417.64700948 -299.16617051 423.252188 -291.1340332 428.94067383 C-286.74615354 432.04513781 -282.2875683 435.02959654 -277.80555725 437.99639893 C-263.14011601 447.70461991 -248.63537349 457.65698562 -234.25146484 467.77685547 C-228.22365094 472.01166961 -222.15089049 476.17642994 -216.05761719 480.31640625 C-200.41537486 490.94782155 -184.92261314 501.79353665 -169.43481445 512.64819336 C-163.0282348 517.1365516 -156.60675759 521.60323021 -150.18261719 526.06640625 C-141.39373128 532.174456 -132.63318235 538.3206928 -123.8984375 544.50585938 C-120.3914908 546.98790639 -116.88056566 549.46431571 -113.37011719 551.94140625 C-109.03758025 554.99928446 -104.70536744 558.05761974 -100.37402344 561.1171875 C-99.25833984 561.90512695 -99.25833984 561.90512695 -98.12011719 562.70898438 C-96.72286288 563.69579523 -95.32571657 564.68275902 -93.92871094 565.66992188 C-88.58642702 569.44251082 -83.22809947 573.19081865 -77.87011719 576.94140625 C-77.54011719 523.15140625 -77.21011719 469.36140625 -76.87011719 413.94140625 C-81.82011719 412.45640625 -81.82011719 412.45640625 -86.87011719 410.94140625 C-89.54980469 409.609375 -89.54980469 409.609375 -91.74511719 408.12890625 C-92.66164063 407.5153125 -93.57816406 406.90171875 -94.52246094 406.26953125 C-95.63962659 405.49533371 -96.7553623 404.71907101 -97.87011719 403.94140625 C-98.5689502 403.45736328 -99.2677832 402.97332031 -99.98779297 402.47460938 C-105.08343302 398.94117542 -110.15708019 395.37710058 -115.22509766 391.80419922 C-119.4334421 388.84041224 -123.65204138 385.89131868 -127.87011719 382.94140625 C-132.88428041 379.43315978 -137.89723445 375.92323493 -142.90527344 372.40625 C-153.43737528 365.01395694 -164.02298667 357.70577909 -174.65332031 350.45556641 C-178.06449069 348.1256018 -181.46738981 345.7836757 -184.87011719 343.44140625 C-186.86948331 342.06651986 -188.86903661 340.69190614 -190.86865234 339.31738281 C-192.18362084 338.41336202 -193.49840521 337.50907335 -194.81298828 336.60449219 C-217.47781622 321.01646961 -240.2801021 305.61991279 -263.19311523 290.39916992 C-274.57648787 282.82605835 -285.89816472 275.16122415 -297.22964478 267.51080322 C-307.86136322 260.33339041 -318.49858932 253.16576921 -329.18261719 246.06640625 C-336.80864597 240.99433302 -344.41564672 235.89535231 -351.99511719 230.75390625 C-353.35697144 229.83472412 -353.35697144 229.83472412 -354.74633789 228.89697266 C-365.95060865 221.27129678 -374.97099483 212.79784143 -377.87011719 198.94140625 C-379.73233094 187.56468864 -378.54608908 176.13564471 -372.87011719 165.94140625 C-365.13478339 155.40616636 -354.17589102 149.06421317 -343.37011719 142.06640625 C-341.3387457 140.74628067 -339.30750058 139.42596062 -337.27636719 138.10546875 C-336.22707031 137.42387695 -335.17777344 136.74228516 -334.09667969 136.04003906 C-328.68102153 132.51756649 -323.2759826 128.97888128 -317.87011719 125.44140625 C-272.83028545 95.98391689 -272.83028545 95.98391689 -251.0222168 82.13256836 C-245.45485984 78.59410476 -239.90291857 75.03363297 -234.37011719 71.44140625 C-210.98565604 56.27099211 -187.34257169 41.51031441 -163.58862305 26.92675781 C-156.26372494 22.42602885 -148.96609899 17.88380208 -141.68261719 13.31640625 C-131.86643054 7.16461671 -122.00190965 1.09740503 -112.08496094 -4.890625 C-108.90714981 -6.81087585 -105.75197742 -8.75745548 -102.62402344 -10.7578125 C-65.84373091 -34.08953662 -33.56651666 -20.83070228 0 0 Z M-99.92822266 30.45556641 C-106.88233635 34.9966196 -113.9709523 39.30345447 -121.07446289 43.60571289 C-130.17713103 49.11927325 -139.2271663 54.71481589 -148.26855469 60.328125 C-150.90462798 61.96280709 -153.5432183 63.5933499 -156.18261719 65.22265625 C-167.79116025 72.39047601 -179.35185784 79.62944291 -190.87011719 86.94140625 C-192.20308838 87.78687012 -192.20308838 87.78687012 -193.56298828 88.64941406 C-205.01897155 95.91751205 -216.44666954 103.22673576 -227.82568359 110.61474609 C-231.33809984 112.89399972 -234.85430769 115.16739175 -238.37011719 117.44140625 C-242.52770849 120.13074899 -246.68489975 122.82068722 -250.83886719 125.515625 C-258.27893095 130.33977179 -265.73583028 135.13611688 -273.21020508 139.90698242 C-281.75551348 145.36188052 -290.27921173 150.83452127 -298.6875 156.49853516 C-303.63118329 159.81530739 -308.66714632 162.97138329 -313.72705078 166.10717773 C-319.60140997 169.75335646 -325.40765704 173.4998178 -331.19970703 177.27514648 C-331.86824707 177.71028564 -332.53678711 178.1454248 -333.22558594 178.59375 C-334.1660376 179.20645752 -334.1660376 179.20645752 -335.12548828 179.83154297 C-336.65718021 180.80594424 -338.2242624 181.7242432 -339.79589844 182.6328125 C-342.00251176 183.77465886 -342.00251176 183.77465886 -342.87011719 185.94140625 C-343.70659205 189.22653747 -343.70659205 189.22653747 -342.87011719 192.94140625 C-339.07867739 197.30668559 -333.64188675 200.10452306 -328.76708984 203.10171509 C-318.88238405 209.18844984 -309.267469 215.65544738 -299.66259766 222.171875 C-294.88133812 225.41567409 -290.09392835 228.65038041 -285.30761719 231.88671875 C-284.37820313 232.51555969 -283.44878906 233.14440063 -282.49121094 233.79229736 C-275.96939606 238.20365553 -269.43062557 242.5877536 -262.87011719 246.94140625 C-250.91190717 254.88339611 -239.02238567 262.9269177 -227.12646484 270.96176147 C-217.4837428 277.47402586 -207.83666989 283.97890656 -198.14746094 290.421875 C-197.39304214 290.92364258 -196.63862335 291.42541016 -195.86134338 291.94238281 C-192.37212883 294.26188204 -188.88069 296.57794009 -185.38598633 298.88916016 C-178.96609654 303.14391814 -172.64878661 307.50092263 -166.44433594 312.06713867 C-162.23972225 315.12848345 -157.92931542 318.03008841 -153.62011719 320.94140625 C-142.9479383 328.1856239 -132.35281779 335.53626376 -121.77441406 342.91650391 C-118.85490101 344.95201511 -115.93323065 346.98438843 -113.01074219 349.015625 C-112.04579834 349.68634033 -111.08085449 350.35705566 -110.08666992 351.0480957 C-108.16443021 352.38404826 -106.2420687 353.71982558 -104.31958008 355.05541992 C-99.6115066 358.32882179 -94.91129449 361.61261596 -90.22558594 364.91796875 C-89.32348389 365.55331543 -88.42138184 366.18866211 -87.49194336 366.84326172 C-85.80141748 368.03492583 -84.11264097 369.22907741 -82.42602539 370.42626953 C-72.38646253 377.49913891 -65.50721239 381.09879729 -52.87011719 379.94140625 C-47.14480428 378.20842611 -42.53926958 374.75995592 -37.76855469 371.2421875 C-32.13212272 367.11718782 -26.42298479 363.10753424 -20.68261719 359.12890625 C-19.17344727 358.08089844 -19.17344727 358.08089844 -17.63378906 357.01171875 C-11.43075989 352.7072525 -5.21610291 348.42010923 1.01171875 344.15161133 C5.74446445 340.90426928 10.45552157 337.62660187 15.1628418 334.3425293 C26.51699975 326.42220007 37.9391031 318.60749171 49.39550781 310.8359375 C54.04777606 307.67947529 58.68828726 304.50672886 63.31738281 301.31640625 C75.99062155 292.59207524 88.67704271 283.89049232 101.48925781 275.37109375 C102.58017479 274.64545982 102.58017479 274.64545982 103.69313049 273.90516663 C107.30812875 271.50156981 110.92530388 269.10133795 114.5456543 266.70581055 C121.30430871 262.22455395 127.9610373 257.66339001 134.4909668 252.85131836 C139.2529732 249.40482228 144.16441089 246.18262203 149.06738281 242.94140625 C150.55915039 241.95140625 150.55915039 241.95140625 152.08105469 240.94140625 C154.09998764 239.60155703 156.11936056 238.26237054 158.13916016 236.92382812 C169.34701077 229.49462429 180.49301183 221.97641439 191.62988281 214.44140625 C194.05831468 212.79837259 196.48683393 211.1554696 198.91577148 209.51318359 C200.48150818 208.45430759 202.04678421 207.39475004 203.61157227 206.33447266 C207.02157084 204.02676652 210.43694544 201.73079277 213.88769531 199.484375 C214.96792969 198.77925781 216.04816406 198.07414063 217.16113281 197.34765625 C218.54655273 196.45530273 218.54655273 196.45530273 219.95996094 195.54492188 C222.36372789 193.9584318 222.36372789 193.9584318 224.12988281 190.94140625 C224.60220714 187.54992714 224.60220714 187.54992714 223.12988281 183.94140625 C221.18590572 182.19997665 221.18590572 182.19997665 218.74316406 180.640625 C217.83679199 180.03234863 216.93041992 179.42407227 215.99658203 178.79736328 C211.38578532 175.81224349 206.74195832 172.88805252 202.06738281 170.00390625 C193.44329888 164.64947032 184.8600624 159.23730741 176.31738281 153.75390625 C166.70382721 147.5852513 157.06492836 141.45941205 147.39941406 135.37255859 C145.08884766 133.91552973 142.78089218 132.45444683 140.47363281 130.9921875 C131.33457757 125.20279221 122.16128844 119.47293202 112.95532227 113.79052734 C107.26137508 110.27215446 101.59364391 106.715365 95.94238281 103.12890625 C87.37641883 97.69645581 78.74070574 92.38087902 70.09594727 87.07495117 C61.76382812 81.95724746 53.46652894 76.78619936 45.18115234 71.59326172 C37.75028204 66.94117765 30.28913146 62.33999524 22.81738281 57.75390625 C12.96582389 51.70458877 3.16384483 45.58375375 -6.59472656 39.38574219 C-8.96106074 37.88367856 -11.32928956 36.3846491 -13.69824219 34.88671875 C-14.50205322 34.37842529 -15.30586426 33.87013184 -16.1340332 33.34643555 C-17.73498507 32.33574094 -19.33701734 31.32675543 -20.94018555 30.31958008 C-24.72887156 27.93810904 -28.49913572 25.53639894 -32.23339844 23.0703125 C-57.82774299 6.30746241 -76.24074892 14.93844396 -99.92822266 30.45556641 Z " fill="#060606" transform="translate(687.8701171875,276.05859375)"/>
<path d="M0 0 C3.23388672 1.48852539 3.23388672 1.48852539 6.5546875 3.47265625 C7.15701202 3.82992798 7.75933655 4.18719971 8.37991333 4.55529785 C14.9967649 8.51798923 21.44891174 12.73740591 27.875 17 C29.1296036 17.82935914 30.3843258 18.65853888 31.63916016 19.48754883 C33.55272162 20.75224741 35.46583407 22.01759791 37.37753296 23.28511047 C40.99792267 25.68429976 44.63010897 28.06344591 48.27877808 30.41940308 C50.9828762 32.16720061 53.67784329 33.9290162 56.375 35.6875 C57.83462158 36.62045898 57.83462158 36.62045898 59.32373047 37.57226562 C67.48882749 42.93579763 73.41508766 48.61908197 77.375 57.6875 C78.09816406 59.30205078 78.09816406 59.30205078 78.8359375 60.94921875 C82.87190416 71.52670185 82.34873338 84.88890619 78.2578125 95.359375 C72.43471789 107.58425685 63.21619784 115.26421001 52.00039673 122.49606323 C48.98619225 124.44010609 45.99287082 126.41596361 42.99609375 128.38671875 C42.39737961 128.77918289 41.79866547 129.17164703 41.18180847 129.57600403 C35.82125344 133.09656357 30.55177215 136.7388851 25.3125 140.4375 C24.50522461 141.00678223 23.69794922 141.57606445 22.86621094 142.16259766 C21.30988565 143.26033428 19.75372671 144.35830678 18.19775391 145.45654297 C14.81671257 147.83100901 11.40945809 150.16660536 8 152.5 C-0.51734958 158.33598167 -8.96989078 164.26347686 -17.42236328 170.19287109 C-19.98731713 171.9911083 -22.55389366 173.78700256 -25.12109375 175.58203125 C-33.61677814 181.52264101 -42.10229431 187.47694978 -50.56713867 193.46142578 C-56.03352615 197.32373485 -61.51478603 201.16448625 -67 205 C-75.32405468 210.82118432 -83.62918378 216.66854221 -91.92333984 222.53222656 C-96.15809884 225.52533391 -100.39547453 228.51473609 -104.63232422 231.50488281 C-108.13722329 233.97864556 -111.64155467 236.45320299 -115.14453125 238.9296875 C-123.58860357 244.89767846 -132.04912149 250.84152011 -140.52490234 256.7644043 C-144.64866859 259.64767171 -148.76659395 262.53857386 -152.87109375 265.44921875 C-153.64130859 265.99513672 -154.41152344 266.54105469 -155.20507812 267.10351562 C-156.6489142 268.12796974 -158.09169608 269.15391193 -159.53320312 270.18164062 C-166.71864025 275.27936865 -171.88070898 278.75994092 -181 278 C-187.14560634 275.8863709 -190.80263589 272.78965695 -194.078125 267.140625 C-195.1277017 264.70347232 -195.33283557 262.89792625 -195.375 260.25 C-195.40335938 259.45078125 -195.43171875 258.6515625 -195.4609375 257.828125 C-194.36381991 251.09665776 -191.21261388 246.5743082 -185.77392578 242.59008789 C-184.77208252 241.89580688 -184.77208252 241.89580688 -183.75 241.1875 C-183.04472168 240.67888428 -182.33944336 240.17026855 -181.61279297 239.64624023 C-179.42254461 238.07639201 -177.215429 236.53406326 -175 235 C-174.33323242 234.5369043 -173.66646484 234.07380859 -172.97949219 233.59667969 C-170.37140038 231.79067703 -167.75797199 229.99297065 -165.13476562 228.20898438 C-160.10845134 224.78836585 -155.16765375 221.26226838 -150.25 217.6875 C-143.04532574 212.45191636 -135.77168237 207.32414496 -128.46411133 202.23339844 C-122.91248995 198.35859989 -117.41182777 194.42057855 -111.9375 190.4375 C-105.07990088 185.45125276 -98.12057354 180.63580977 -91.10522461 175.87475586 C-85.66859422 172.17339778 -80.31585711 168.37247484 -75 164.5 C-68.22900221 159.57128001 -61.37282481 154.78940618 -54.44824219 150.0793457 C-48.18856177 145.82030576 -41.96263007 141.51486399 -35.75 137.1875 C-34.78545898 136.51614014 -33.82091797 135.84478027 -32.82714844 135.15307617 C-27.97029746 131.77094323 -23.11751401 128.38311332 -18.26953125 124.98828125 C-7.39784104 117.38562916 3.55623637 109.93070262 14.61474609 102.60229492 C22.20170736 97.56338136 29.6376038 92.3607757 37 87 C37.62245605 86.58024902 38.24491211 86.16049805 38.88623047 85.72802734 C39.52061035 85.29570801 40.15499023 84.86338867 40.80859375 84.41796875 C41.39310303 84.02762451 41.9776123 83.63728027 42.57983398 83.23510742 C44.29849077 81.9517234 44.29849077 81.9517234 45 79 C45.03948123 74.90260803 45.03948123 74.90260803 44 71 C42.33633573 70.32587582 40.66882937 69.66123428 39 69 C36.54695479 67.49707793 34.14550842 65.96444367 31.75 64.375 C30.23752979 63.38327433 28.72447114 62.3924457 27.2109375 61.40234375 C26.38432617 60.86077637 25.55771484 60.31920898 24.70605469 59.76123047 C20.69776077 57.15244011 16.66396051 54.58413139 12.63085938 52.01391602 C8.3707576 49.29704697 4.11939685 46.56665637 -0.13183594 43.8359375 C-2.66715875 42.21305467 -5.21091807 40.60462063 -7.7578125 39 C-9.08902312 38.14658387 -10.41979646 37.29248501 -11.75 36.4375 C-12.85859375 35.73496094 -13.9671875 35.03242187 -15.109375 34.30859375 C-19.21415744 31.0303148 -22.2260119 27.46708707 -23.8125 22.41015625 C-24.26671042 16.72306322 -24.13202344 11.92476413 -21 7 C-14.64559746 0.2640398 -9.22087671 -1.30494717 0 0 Z " fill="#070606" transform="translate(875,581)"/>
<path d="M0 0 C0.33 1.32 0.66 2.64 1 4 C0.01 4.66 -0.98 5.32 -2 6 C-1.67 6.66 -1.34 7.32 -1 8 C-1.9609375 9.83984375 -1.9609375 9.83984375 -3.375 11.9375 C-5.95434186 15.79210306 -7.09822539 18.80508334 -7.31640625 23.44921875 C-7.35830078 24.29677734 -7.40019531 25.14433594 -7.44335938 26.01757812 C-7.48267578 26.89865234 -7.52199219 27.77972656 -7.5625 28.6875 C-7.60568359 29.58017578 -7.64886719 30.47285156 -7.69335938 31.39257812 C-7.79935353 33.59490108 -7.90142051 35.79733473 -8 38 C-8.33 38 -8.66 38 -9 38 C-10.65620795 25.17557898 -9.51431481 12.65877057 -1.75 1.875 C-0.88375 0.946875 -0.88375 0.946875 0 0 Z " fill="#585959" transform="translate(319,437)"/>
<path d="M0 0 C0.33 1.32 0.66 2.64 1 4 C0.01 4.66 -0.98 5.32 -2 6 C-1.67 6.66 -1.34 7.32 -1 8 C-2.3125 10.625 -2.3125 10.625 -4 13 C-4.66 13 -5.32 13 -6 13 C-5.58221009 7.2902045 -3.42453429 4.39042858 0 0 Z " fill="#39393A" transform="translate(319,437)"/>
<path d="M0 0 C0.66 0.33 1.32 0.66 2 1 C-1.11016455 4.28788824 -4.01618925 6.83735988 -8 9 C-8.66 8.34 -9.32 7.68 -10 7 C-6.7 4.69 -3.4 2.38 0 0 Z " fill="#404141" transform="translate(734,588)"/>
<path d="M0 0 C0.66 0.33 1.32 0.66 2 1 C-0.64 3.64 -3.28 6.28 -6 9 C-6 6 -6 6 -3.5625 3.375 C-2.716875 2.59125 -1.87125 1.8075 -1 1 C-0.67 0.67 -0.34 0.34 0 0 Z " fill="#404041" transform="translate(689,824)"/>
<path d="M0 0 C0.66 0.33 1.32 0.66 2 1 C0.6875 3.5 0.6875 3.5 -1 6 C-1.99 6 -2.98 6 -4 6 C-4 5.01 -4 4.02 -4 3 C-2 1.3125 -2 1.3125 0 0 Z " fill="#383839" transform="translate(779,760)"/>
<path d="M0 0 C0.66 0.33 1.32 0.66 2 1 C1.38125 1.2475 0.7625 1.495 0.125 1.75 C-2.35068687 3.20628639 -2.95125002 4.37812506 -4 7 C-5.32 6.67 -6.64 6.34 -8 6 C-5.36 4.02 -2.72 2.04 0 0 Z " fill="#414042" transform="translate(703,814)"/>
<path d="M0 0 C0 0.33 0 0.66 0 1 C-4.41225737 2.47075246 -7.48281619 3.36884358 -12 2 C-8.09971775 -0.60018816 -4.52565431 -0.15085514 0 0 Z M-9 3 C-7 4 -7 4 -7 4 Z " fill="#414141" transform="translate(623,253)"/>
</svg>
