<?xml version="1.0" encoding="UTF-8"?>
<svg version="1.1" xmlns="http://www.w3.org/2000/svg" width="1254" height="1254">
<path d="M0 0 C0.94552734 0.59876953 1.89105469 1.19753906 2.86523438 1.81445312 C15.2924149 9.70077879 27.63913435 17.70784673 39.9543457 25.76757812 C46.02630272 29.73423097 52.13996775 33.6224135 58.30273438 37.44604492 C67.74740474 43.31263825 77.04768754 49.40543732 86.34375 55.50390625 C96.33059444 62.04906408 106.35773115 68.5102439 116.5 74.8125 C123.42632375 79.11794889 130.31074457 83.45850418 137.0715332 88.01953125 C143.23720091 92.17779189 149.46137433 96.24551318 155.6875 100.3125 C156.70183105 100.97556152 157.71616211 101.63862305 158.76123047 102.32177734 C163.66786966 105.52669196 168.5774092 108.72697564 173.49438477 111.91601562 C187.19896754 120.80660695 200.84025782 129.79106336 214.4699707 138.79589844 C217.31411406 140.67458985 220.15878884 142.55247157 223.00390625 144.4296875 C223.89908966 145.02038025 224.79427307 145.611073 225.71658325 146.21966553 C231.09795347 149.7645399 236.51097918 153.24918894 241.96069336 156.68798828 C244.5539237 158.35637328 247.03742374 160.14507243 249.5 162 C253.12997802 164.69788666 256.80555228 167.11904019 260.6875 169.4375 C271.26498072 176.12753054 278.17443417 186.32424737 281.375 198.4375 C283.91701256 212.95579853 281.21937728 226.78343938 273 239 C267.4428996 245.44216655 261.24201878 250.18311007 254 254.5625 C252.04774256 255.77403969 250.09593699 256.98630774 248.14453125 258.19921875 C246.63173584 259.13193604 246.63173584 259.13193604 245.08837891 260.08349609 C239.91896856 263.29139105 234.80573721 266.58630987 229.6875 269.875 C227.57446717 271.22955426 225.46118445 272.5837188 223.34765625 273.9375 C222.29723145 274.61039063 221.24680664 275.28328125 220.16455078 275.9765625 C217.04909398 277.96860894 213.92951076 279.95402117 210.80859375 281.9375 C198.62697275 289.68874079 186.55254343 297.58029816 174.55908203 305.61816406 C167.57138295 310.29954642 160.53908267 314.90092526 153.4543457 319.43383789 C149.59844937 321.91669454 145.86904922 324.51096904 142.1875 327.25 C137.71988132 330.57363753 133.08695353 333.37521218 128.21484375 336.06640625 C124.58409549 338.25014913 121.16397095 340.65599455 117.70629883 343.10180664 C113.15137346 346.29662348 108.51020784 349.36086055 103.875 352.4375 C101.7447427 353.85409303 99.61453576 355.27076181 97.484375 356.6875 C96.40607422 357.40421875 95.32777344 358.1209375 94.21679688 358.859375 C91.14699755 360.90218013 88.08058395 362.94994153 85.015625 365 C65.78346891 377.8602194 46.48424297 390.61354384 26.890625 402.91796875 C21.13453642 406.53638814 15.41199944 410.20689108 9.6875 413.875 C8.6353833 414.54772949 7.5832666 415.22045898 6.49926758 415.91357422 C1.28974152 419.2454012 -3.91176917 422.58851415 -9.09765625 425.95703125 C-10.07114014 426.58561035 -11.04462402 427.21418945 -12.04760742 427.86181641 C-13.86282455 429.03392535 -15.67451512 430.21152424 -17.48168945 431.39599609 C-24.83714626 436.12986881 -32.33782218 440.37433861 -41 442 C-40.99723462 442.83415058 -40.99446924 443.66830116 -40.99162006 444.52772903 C-40.92525503 464.86082645 -40.87566831 485.19390509 -40.84456348 505.52708817 C-40.82912012 515.36022084 -40.80807915 525.19328104 -40.77368164 535.02636719 C-40.74370163 543.60075645 -40.72440662 552.1750932 -40.71773452 560.74953341 C-40.71383679 565.28612443 -40.70472976 569.82256527 -40.68280983 574.35910797 C-40.66230852 578.63708443 -40.65619351 582.91485017 -40.66067696 587.19287109 C-40.65985782 588.75524799 -40.65397393 590.31763261 -40.64238358 591.87996674 C-40.53269268 607.44120292 -42.63699459 619.12145928 -53.3125 630.8125 C-60.65073869 637.70309014 -69.14242121 639.26636665 -79 639 C-92.59450832 637.18658354 -103.09045633 628.95927956 -114.125 621.4375 C-116.09820709 620.11232757 -118.07250194 618.78877346 -120.04785156 617.46679688 C-124.86199778 614.23859717 -129.66189855 610.99006367 -134.45495605 607.73065186 C-136.71990245 606.19046876 -138.98672553 604.65312457 -141.25488281 603.11767578 C-145.84115256 600.01256346 -150.42534285 596.90453709 -154.99926758 593.78125 C-165.15903567 586.85069762 -175.43513371 580.1023761 -185.73144531 573.37695312 C-196.55851527 566.30456369 -207.31954127 559.13688578 -218.0625 551.9375 C-222.28399328 549.12128991 -226.53780075 546.35950227 -230.8125 543.625 C-235.49122729 540.63140484 -240.13601602 537.59272765 -244.75 534.5 C-262.45543198 522.6473485 -280.3572647 511.09603378 -298.31640625 499.6328125 C-303.05617634 496.60669379 -307.78294263 493.56137081 -312.5 490.5 C-318.2900312 486.74257111 -324.09870258 483.0152434 -329.91577148 479.29980469 C-342.09789742 471.51881348 -354.24122569 463.68243448 -366.32373047 455.74755859 C-368.93660631 454.041395 -371.56213045 452.35653037 -374.19140625 450.67578125 C-375.79444395 449.63828827 -377.39731782 448.60054209 -379 447.5625 C-380.0672229 446.89105957 -380.0672229 446.89105957 -381.15600586 446.20605469 C-388.26202849 441.56378344 -393.60883942 435.67857518 -397.3125 428 C-397.78300781 427.05125 -398.25351562 426.1025 -398.73828125 425.125 C-401.51495285 418.24779481 -402.36306705 412.03161988 -402.3125 404.6875 C-402.30831055 403.85444336 -402.30412109 403.02138672 -402.29980469 402.16308594 C-402.10681648 391.60622042 -399.8435737 382.35342356 -392.625 374.375 C-389.81494238 371.83256692 -386.91602978 369.41968429 -384 367 C-383.07574219 366.01966797 -383.07574219 366.01966797 -382.1328125 365.01953125 C-379.85179469 362.8596664 -377.73942358 361.65302506 -374.9375 360.25 C-369.82172254 357.55605336 -365.31365136 354.40377755 -360.69140625 350.9453125 C-357.37757256 348.55011776 -353.9295774 346.48878401 -350.3984375 344.43359375 C-348.03079778 343.01840844 -345.77043522 341.50290534 -343.5 339.9375 C-333.56287155 333.27192617 -323.19313288 328.63352821 -311 330 C-304.92260514 331.36046257 -299.51238873 333.3549072 -295.84765625 338.671875 C-292.27186164 344.62729094 -290.79265573 350.08506311 -292.49609375 357.01953125 C-294.32844911 362.43377901 -296.8564202 367.09577815 -301.90234375 370.15234375 C-306.02290618 372.12693515 -309.96280233 373.20722538 -314.4375 374.0625 C-322.72276126 376.02920343 -329.39997628 380.71883562 -336.43652344 385.33203125 C-339.20025325 387.13029811 -341.99285417 388.87771758 -344.7890625 390.625 C-346.71471712 391.85232434 -348.63921768 393.08146146 -350.5625 394.3125 C-351.48538818 394.88653564 -352.40827637 395.46057129 -353.35913086 396.05200195 C-358.31607706 399.23784624 -358.31607706 399.23784624 -361.40234375 404.10546875 C-360.82634805 408.24928245 -359.2451673 409.40637208 -356 412 C-353.53897156 413.71065536 -351.00822357 415.27282678 -348.4375 416.8125 C-346.99262891 417.69651147 -345.54862357 418.58193947 -344.10546875 419.46875 C-343.04851807 420.11650391 -343.04851807 420.11650391 -341.97021484 420.77734375 C-339.35746529 422.39873777 -336.80053649 424.09516302 -334.25 425.8125 C-328.24501603 429.85353901 -322.17946749 433.79729713 -316.10717773 437.73632812 C-311.55903236 440.68702083 -307.01385267 443.64200959 -302.4765625 446.609375 C-291.53939828 453.76125504 -280.56446666 460.84890844 -269.5480957 467.87817383 C-260.90011134 473.4046292 -252.30971335 479.0160703 -243.72900391 484.64624023 C-236.37469543 489.46532001 -228.98039477 494.21702151 -221.5625 498.9375 C-211.38699256 505.41752567 -201.33568145 512.06895826 -191.31274414 518.78100586 C-185.90454736 522.40190215 -180.4910386 526.00570271 -175 529.5 C-164.57045829 536.14176363 -154.3342654 543.08547526 -144.05566406 549.95751953 C-140.35178401 552.43328339 -136.64502577 554.90470124 -132.9375 557.375 C-131.80729115 558.12890547 -130.67708281 558.88281172 -129.546875 559.63671875 C-126.85107079 561.43417948 -124.15240905 563.22730088 -121.453125 565.01953125 C-114.4455516 569.67590775 -107.4563472 574.34171856 -100.5859375 579.19921875 C-97.06326057 581.65232157 -93.50399402 584.04868898 -89.9375 586.4375 C-88.93456909 587.11256592 -88.93456909 587.11256592 -87.91137695 587.80126953 C-85.17018925 590.00759239 -85.17018925 590.00759239 -82 591 C-81.67 541.5 -81.34 492 -81 441 C-83.97 440.01 -86.94 439.02 -90 438 C-92.44506836 436.82763672 -92.44506836 436.82763672 -94.33984375 435.6796875 C-95.0786377 435.2360083 -95.81743164 434.7923291 -96.57861328 434.33520508 C-97.74626221 433.61240356 -97.74626221 433.61240356 -98.9375 432.875 C-99.78812012 432.35639404 -100.63874023 431.83778809 -101.51513672 431.3034668 C-112.02903727 424.83808721 -122.32210833 418.02549257 -132.62255859 411.22753906 C-138.21906377 407.53460294 -143.82757493 403.86000652 -149.4375 400.1875 C-150.5217627 399.4773877 -151.60602539 398.76727539 -152.72314453 398.03564453 C-159.86811595 393.36614762 -167.06241794 388.78354001 -174.29370117 384.24926758 C-182.64036313 378.99925428 -190.81831168 373.5021044 -199 368 C-201.51913295 366.30994878 -204.04005176 364.62259875 -206.5625 362.9375 C-207.16118896 362.53732666 -207.75987793 362.13715332 -208.37670898 361.72485352 C-213.87931896 358.05816314 -219.43919865 354.48207253 -225.00048828 350.90527344 C-229.66535547 347.89436262 -234.22368579 344.76451486 -238.74609375 341.54296875 C-241.90980125 339.37717246 -245.20779684 337.46571197 -248.51171875 335.5234375 C-251.02520294 333.98456963 -253.41438454 332.33738616 -255.8125 330.625 C-259.45957514 328.02963955 -263.17181887 325.63246422 -267 323.3125 C-272.23856103 320.1277972 -277.35117886 316.79693006 -282.4375 313.375 C-291.8603001 307.04526441 -301.43237028 300.96378407 -311.02148438 294.89013672 C-316.29376756 291.54439767 -321.55329279 288.17874302 -326.8125 284.8125 C-327.86888672 284.13654785 -328.92527344 283.4605957 -330.01367188 282.76416016 C-336.72175295 278.46843241 -343.41204086 274.14623188 -350.09179688 269.80664062 C-354.79989949 266.7558642 -359.54778837 263.77390456 -364.3125 260.8125 C-366.26770599 259.59126949 -368.22180812 258.36831525 -370.17480469 257.14355469 C-371.89830253 256.06371736 -373.62484003 254.98873593 -375.3515625 253.9140625 C-387.6105779 246.06208554 -396.65376711 236.95642279 -400.66796875 222.61328125 C-402.55592589 207.75394798 -400.99820882 194.83044468 -392.07421875 182.44921875 C-386.32589906 175.66165482 -380.0929521 170.7543291 -372.625 165.9375 C-371.28308594 165.05868164 -371.28308594 165.05868164 -369.9140625 164.16210938 C-368.13762754 162.99890596 -366.35933503 161.83853393 -364.57910156 160.68115234 C-358.99341972 157.04020146 -353.44124528 153.3542154 -348 149.5 C-337.01091957 141.71606803 -325.62178104 134.48791653 -314.36450195 127.10058594 C-306.19444625 121.73858175 -298.0333998 116.36503701 -289.90795898 110.93554688 C-284.35448075 107.23913386 -278.7697684 103.59021605 -273.1875 99.9375 C-271.907875 99.09985749 -270.62825265 98.26221094 -269.34863281 97.42456055 C-266.15786374 95.3361597 -262.96653607 93.24861399 -259.77508545 91.16125488 C-258.12467893 90.08156453 -256.47467642 89.00125668 -254.82470703 87.92089844 C-241.00051266 78.86975178 -227.11178444 69.92388852 -213.18359375 61.03369141 C-209.96428058 58.9771823 -206.74737916 56.91695323 -203.53125 54.85546875 C-193.38126898 48.35001898 -183.22232188 41.86028818 -173.02319336 35.43212891 C-164.25920815 29.90747362 -155.52295566 24.33937927 -146.78515625 18.7734375 C-144.05542684 17.03529282 -141.32476815 15.29861894 -138.59375 13.5625 C-137.70260498 12.9957959 -136.81145996 12.4290918 -135.89331055 11.84521484 C-134.09048991 10.69907443 -132.2872675 9.55356574 -130.48364258 8.40869141 C-125.46691806 5.22065108 -120.4660539 2.00999093 -115.48046875 -1.2265625 C-114.38001221 -1.93828613 -113.27955566 -2.65000977 -112.14575195 -3.38330078 C-110.03550732 -4.7489663 -107.92833205 -6.11939197 -105.82495117 -7.49560547 C-67.25790655 -32.40899311 -36.05543299 -22.85050425 0 0 Z M-104.9296875 40.03515625 C-110.58750138 43.74184444 -116.28566615 47.38124791 -122 51 C-133.40125845 58.23016532 -144.70781568 65.60095381 -156 73 C-157.15608024 73.75733491 -158.3121677 74.51465879 -159.46826172 75.27197266 C-164.38253767 78.49132682 -169.29664182 81.71094215 -174.2097168 84.93212891 C-181.92303497 89.98860554 -189.64578845 95.03033668 -197.375 100.0625 C-204.22685321 104.52387128 -211.05317428 109.01945113 -217.84619141 113.56982422 C-224.9923151 118.34797781 -232.2304931 122.98348052 -239.49560547 127.57836914 C-245.9308258 131.6548429 -252.295491 135.82406833 -258.625 140.0625 C-259.62917969 140.73297363 -260.63335937 141.40344727 -261.66796875 142.09423828 C-266.47070621 145.30112029 -271.27108063 148.51151331 -276.06933594 151.72509766 C-279.66478881 154.13310361 -283.26180975 156.5387541 -286.85955811 158.94332886 C-288.25995551 159.88000859 -289.65976029 160.81757509 -291.05889893 161.75613403 C-299.73976974 167.57913687 -308.50213965 173.23755306 -317.38378906 178.74951172 C-321.91959794 181.56536425 -326.40517547 184.45571499 -330.875 187.375 C-331.69726074 187.9117334 -332.51952148 188.4484668 -333.36669922 189.00146484 C-335.062243 190.10990269 -336.75707468 191.21943062 -338.45117188 192.33007812 C-340.16974354 193.45603887 -341.88983148 194.57968827 -343.61132812 195.70117188 C-346.11991849 197.33638715 -348.62313025 198.97952589 -351.125 200.625 C-351.88925293 201.12177246 -352.65350586 201.61854492 -353.44091797 202.13037109 C-354.14361816 202.59523926 -354.84631836 203.06010742 -355.5703125 203.5390625 C-356.18664551 203.94334473 -356.80297852 204.34762695 -357.43798828 204.76416016 C-359.28712344 206.09664647 -359.28712344 206.09664647 -361 209 C-360.87008157 212.23551155 -360.46762443 213.56338388 -358.08178711 215.79101562 C-356.84827515 216.59055664 -356.84827515 216.59055664 -355.58984375 217.40625 C-354.68347168 218.00179687 -353.77709961 218.59734375 -352.84326172 219.2109375 C-351.90498535 219.80132812 -350.96670898 220.39171875 -350 221 C-348.70666748 221.82371094 -348.70666748 221.82371094 -347.38720703 222.6640625 C-344.79132435 224.29702801 -342.18032814 225.9024835 -339.5625 227.5 C-332.33068844 231.93292252 -325.14500634 236.42837826 -318 241 C-316.54654175 241.928125 -316.54654175 241.928125 -315.0637207 242.875 C-311.99988158 244.83187964 -308.93721647 246.79058222 -305.875 248.75 C-304.77824951 249.4517334 -303.68149902 250.1534668 -302.55151367 250.87646484 C-295.79469113 255.20261525 -289.05173088 259.54920777 -282.32177734 263.91699219 C-276.56899221 267.64469688 -270.78624576 271.32450382 -265 275 C-255.63407434 280.95048638 -246.30375756 286.95287112 -237 293 C-235.40234474 294.03776194 -233.80468845 295.0755223 -232.20703125 296.11328125 C-228.84567115 298.29712836 -225.48511066 300.4821998 -222.125 302.66796875 C-218.68934201 304.9025911 -215.25171453 307.13413674 -211.8125 309.36328125 C-202.62629626 315.31966041 -193.47214302 321.31776223 -184.37597656 327.41064453 C-179.62331803 330.58982733 -174.86384598 333.7588132 -170.10574341 336.92984009 C-167.80878144 338.46071808 -165.51200314 339.99187142 -163.21531677 341.52316284 C-161.55390109 342.63073268 -159.89218518 343.73785213 -158.23046875 344.8449707 C-156.13239854 346.24458269 -154.03594758 347.64662616 -151.94140625 349.05151367 C-143.76851098 354.52663142 -135.48814481 359.82146628 -127.1796875 365.08789062 C-121.50375678 368.70208166 -115.92197898 372.40369222 -110.43017578 376.29174805 C-103.56793366 381.11544788 -96.53167406 385.69342187 -89.53662109 390.32128906 C-87.94703645 391.37326057 -86.35863038 392.42701751 -84.77197266 393.48339844 C-82.8734019 394.74607334 -80.96924621 395.99971777 -79.0625 397.25 C-78.02222656 397.93578125 -76.98195313 398.6215625 -75.91015625 399.328125 C-67.29286466 404.2787301 -57.40674106 404.20373874 -47.83984375 402.40625 C-38.41926981 399.3281178 -30.55998698 393.17380258 -22.53125 387.53515625 C-14.8631108 382.16384176 -7.02590575 377.05569001 0.8125 371.9375 C3.50673405 370.17612318 6.20063378 368.41423529 8.89453125 366.65234375 C9.52495834 366.2401358 10.15538544 365.82792786 10.80491638 365.40322876 C18.13896359 360.6052585 25.41770465 355.73640521 32.625 350.75 C39.65404621 345.9038874 46.73806618 341.14720126 53.85253906 336.42773438 C56.27714404 334.81574144 58.69737235 333.19729891 61.1171875 331.578125 C76.87051533 321.04224245 76.87051533 321.04224245 84.375 316.25 C88.80302801 313.42141068 93.198221 310.55070154 97.5625 307.625 C118.48478552 293.60951409 139.65278072 279.95368864 160.75195312 266.20703125 C172.34469601 258.65331468 183.92789188 251.08527688 195.5 243.5 C204.60021023 237.53560511 213.70197662 231.57363586 222.8125 225.625 C223.7303125 225.02494141 224.648125 224.42488281 225.59375 223.80664062 C226.45613281 223.24396484 227.31851563 222.68128906 228.20703125 222.1015625 C229.41866943 221.30733887 229.41866943 221.30733887 230.65478516 220.49707031 C232.20734864 219.50598981 233.78034213 218.54615212 235.37255859 217.62011719 C236.09910645 217.19633789 236.8256543 216.77255859 237.57421875 216.3359375 C238.532677 215.79912354 238.532677 215.79912354 239.51049805 215.25146484 C241.44269267 213.62805399 241.69219218 212.47267278 242 210 C241.20354048 206.50867061 240.28381706 205.22219317 237.4453125 203 C236.34960938 202.34 235.25390625 201.68 234.125 201 C232.83264594 200.20424029 231.54101909 199.40729871 230.25 198.609375 C229.55648437 198.18591797 228.86296875 197.76246094 228.1484375 197.32617188 C224.43206469 195.0321563 220.78194849 192.63717995 217.125 190.25 C216.30700928 189.71810059 215.48901855 189.18620117 214.64624023 188.63818359 C205.07972889 182.41444309 195.5439995 176.14365998 186.00512695 169.87768555 C177.95215451 164.58856504 169.88871444 159.31609568 161.8125 154.0625 C153.60005001 148.71904084 145.43804285 143.30388172 137.29394531 137.85693359 C130.24949578 133.15119817 123.14461318 128.55208971 116 124 C107.70022923 118.68937934 99.43510723 113.32875096 91.1875 107.9375 C81.7630063 101.77716403 72.28848574 95.69854192 62.79589844 89.64379883 C56.53898582 85.6458895 50.33264626 81.5855306 44.17456055 77.4375 C39.28891807 74.15971191 34.31022482 71.04563618 29.31005859 67.94628906 C24.01618299 64.65642416 18.78190826 61.28159593 13.5625 57.875 C4.7755275 52.1402991 -4.04993344 46.46791993 -12.8984375 40.82861328 C-17.62709278 37.8123355 -22.34557886 34.786119 -27.015625 31.6796875 C-37.43005771 24.71346336 -37.43005771 24.71346336 -49 20 C-49.62003906 19.81179688 -50.24007813 19.62359375 -50.87890625 19.4296875 C-72.05391521 15.14009084 -88.36909361 29.16730799 -104.9296875 40.03515625 Z " fill="#F4F3F4" transform="translate(688,279)"/>
<path d="M0 0 C3.17340325 1.99040198 6.21705409 4.15024241 9.25585938 6.33837891 C11.69868122 8.06904259 14.18637036 9.68803375 16.71679688 11.28759766 C17.62300781 11.86251953 18.52921875 12.43744141 19.46289062 13.02978516 C21.19004275 14.11639005 22.91861118 15.20081835 24.65478516 16.27294922 C38.51111961 24.83799973 50.83289833 33.08247758 55.68554688 49.53369141 C58.94327334 63.54493163 58.23734076 76.72911249 51.22070312 89.63134766 C45.79818313 97.96120381 38.93790905 103.74302288 30.65429688 109.03759766 C29.15865798 110.01416592 27.66395167 110.9921632 26.16992188 111.97119141 C21.01012278 115.34541246 15.83343248 118.69315974 10.65429688 122.03759766 C7.88319795 123.82885371 5.1124671 125.62067859 2.34179688 127.41259766 C1.66165527 127.8523291 0.98151367 128.29206055 0.28076172 128.74511719 C-8.58809412 134.48258627 -17.43189004 140.2584846 -26.27587891 146.03417969 C-29.32765977 148.02582226 -32.38144013 150.01436777 -35.43554688 152.00244141 C-51.854523 162.70101743 -68.16773503 173.55395342 -84.46118164 184.44238281 C-88.43434081 187.09726831 -92.40912272 189.74971441 -96.38476562 192.40087891 C-96.97899826 192.79730087 -97.5732309 193.19372284 -98.18547058 193.60215759 C-101.76534533 195.98891938 -105.3519507 198.36526484 -108.94223022 200.73634338 C-116.06193257 205.44077142 -123.05118271 210.31895529 -130.02807617 215.23193359 C-137.41206953 220.41654242 -144.87152372 225.48450213 -152.34570312 230.53759766 C-160.63789927 236.14481583 -168.90465153 241.78298697 -177.09570312 247.53759766 C-177.89065186 248.09479492 -178.68560059 248.65199219 -179.50463867 249.22607422 C-183.30711048 251.89372288 -187.09943144 254.57458137 -190.88085938 257.27197266 C-192.3064509 258.27745005 -193.73222274 259.28267184 -195.15820312 260.28759766 C-196.10034668 260.96918945 -196.10034668 260.96918945 -197.06152344 261.66455078 C-203.3363079 266.06063692 -209.2307194 267.64414801 -216.84960938 266.63525391 C-221.69191959 265.47582752 -225.62875939 263.26215954 -228.69335938 259.29150391 C-232.18104652 253.478692 -233.49824319 247.72943399 -231.84960938 241.01806641 C-228.98505673 232.55387977 -224.13845456 228.7050642 -216.72851562 224.18994141 C-212.6840696 221.67520337 -208.87336249 218.85043449 -205.03320312 216.03759766 C-195.49328025 209.07709979 -185.74763369 202.43947123 -175.96972656 195.81933594 C-173.60212552 194.21171104 -171.24136912 192.59487739 -168.88476562 190.97119141 C-157.88556125 183.39459531 -146.78130766 175.98106331 -135.66079712 168.58432007 C-126.64731449 162.58821125 -117.64871438 156.5749697 -108.7421875 150.42041016 C-103.09066116 146.51965938 -97.3765043 142.71461352 -91.65966797 138.91064453 C-87.8084477 136.34755296 -83.96295732 133.77597203 -80.11851501 131.20272827 C-45.10545969 107.76864987 -45.10545969 107.76864987 -28.6027832 97.30444336 C-21.18162279 92.59516887 -13.84567993 87.76905256 -6.56420898 82.84643555 C-2.74874969 80.27231613 1.06955432 77.75364189 5.03320312 75.41259766 C6.02380737 74.81789673 6.02380737 74.81789673 7.03442383 74.21118164 C8.75617607 73.18811147 10.49365276 72.1916278 12.23242188 71.19775391 C14.96426154 69.14423211 14.96426154 69.14423211 15.70117188 65.47119141 C16.01060595 62.14762613 16.01060595 62.14762613 14.38989258 60.48120117 C12.6044465 58.99613398 10.80599352 57.73918084 8.83789062 56.50634766 C8.0827417 56.03092529 7.32759277 55.55550293 6.54956055 55.06567383 C5.73849854 54.56140869 4.92743652 54.05714355 4.09179688 53.53759766 C2.82783081 52.74736206 2.82783081 52.74736206 1.53833008 51.94116211 C-0.21919948 50.84436534 -1.97809058 49.74974755 -3.73828125 48.65722656 C-6.20022972 47.12796007 -8.65604546 45.58925247 -11.11132812 44.04931641 C-17.9529422 39.78805561 -24.72390802 35.75662971 -32.03320312 32.35009766 C-39.23512494 28.85345196 -43.72106053 24.99324919 -46.78320312 17.53759766 C-48.11358832 9.25964532 -47.61251004 5.29862367 -42.99023438 -1.75927734 C-31.27572395 -17.45282575 -13.16129609 -8.00948489 0 0 Z " fill="#F3F3F4" transform="translate(912.345703125,618.96240234375)"/>
<path d="M0 0 C0.66 0.33 1.32 0.66 2 1 C1.01 2.485 1.01 2.485 0 4 C-0.66 3.67 -1.32 3.34 -2 3 C-2.33 3.99 -2.66 4.98 -3 6 C-4.66666667 6.66666667 -6.33333333 7.33333333 -8 8 C-8.33 8.99 -8.66 9.98 -9 11 C-11.31 11.33 -13.62 11.66 -16 12 C-12.8980055 8.65707389 -9.56424638 6.23755199 -5.75 3.75 C-4.67234375 3.04359375 -3.5946875 2.3371875 -2.484375 1.609375 C-1.66453125 1.07828125 -0.8446875 0.5471875 0 0 Z " fill="#7C7C7C" transform="translate(448,357)"/>
<path d="M0 0 C-0.66 1.32 -1.32 2.64 -2 4 C-3.32 4 -4.64 4 -6 4 C-6.23460937 4.62390625 -6.46921875 5.2478125 -6.7109375 5.890625 C-8.36823075 8.60255941 -9.6141599 8.88975997 -12.625 9.75 C-13.85089844 10.11351562 -13.85089844 10.11351562 -15.1015625 10.484375 C-16.04128906 10.73960937 -16.04128906 10.73960937 -17 11 C-14.06072511 7.85177192 -11.0143222 5.54542155 -7.375 3.25 C-6.41335938 2.63640625 -5.45171875 2.0228125 -4.4609375 1.390625 C-2 0 -2 0 0 0 Z " fill="#99999A" transform="translate(917,501)"/>
<path d="M0 0 C-0.66 1.32 -1.32 2.64 -2 4 C-2.66 3.67 -3.32 3.34 -4 3 C-4.33 3.99 -4.66 4.98 -5 6 C-5.66 6 -6.32 6 -7 6 C-7.33 6.99 -7.66 7.98 -8 9 C-10.31 9.33 -12.62 9.66 -15 10 C-11.63672231 6.19803392 -5.34781299 0 0 0 Z " fill="#9D9C9E" transform="translate(895,515)"/>
<path d="M0 0 C2 1 2 1 3 3 C1.88625 3.433125 0.7725 3.86625 -0.375 4.3125 C-4.17512334 5.69911119 -4.17512334 5.69911119 -6 9 C-9.125 9.1875 -9.125 9.1875 -12 9 C-8.63378119 5.21300384 -4.58358196 2.1727369 0 0 Z " fill="#979797" transform="translate(481,336)"/>
<path d="M0 0 C0.66 0 1.32 0 2 0 C2.93774307 3.32011734 3.71883505 6.55572939 4 10 C2.5 12.5625 2.5 12.5625 0 14 C-3.25 14.75 -3.25 14.75 -6 15 C-2 11 -2 11 -0.1875 9.75 C1.88345716 6.69806313 0.63155794 3.50227585 0 0 Z " fill="#979697" transform="translate(927,678)"/>
<path d="M0 0 C-1.14591488 3.43774463 -1.95688598 4.17413159 -5 6 C-6.32 6 -7.64 6 -9 6 C-9.33 6.99 -9.66 7.98 -10 9 C-11.32 8.67 -12.64 8.34 -14 8 C-12.04532248 6.66101601 -10.0866421 5.32870953 -8.125 4 C-7.03445313 3.2575 -5.94390625 2.515 -4.8203125 1.75 C-2 0 -2 0 0 0 Z " fill="#959495" transform="translate(883,718)"/>
<path d="M0 0 C0.66 0.33 1.32 0.66 2 1 C1.360625 1.433125 0.72125 1.86625 0.0625 2.3125 C-2.26746003 3.91239177 -2.26746003 3.91239177 -3 7 C-5.06640625 7.73046875 -5.06640625 7.73046875 -7.5625 8.1875 C-8.38878906 8.34605469 -9.21507812 8.50460937 -10.06640625 8.66796875 C-10.70449219 8.77753906 -11.34257813 8.88710938 -12 9 C-9.67350413 6.49280542 -7.17318479 4.67816399 -4.3125 2.8125 C-3.50425781 2.28269531 -2.69601562 1.75289062 -1.86328125 1.20703125 C-1.24839844 0.80871094 -0.63351562 0.41039062 0 0 Z " fill="#7D7D7D" transform="translate(832,555)"/>
<path d="M0 0 C0.66 0.33 1.32 0.66 2 1 C-2.30769231 6.84615385 -2.30769231 6.84615385 -6 8 C-7.32 7.67 -8.64 7.34 -10 7 C-6.7 4.69 -3.4 2.38 0 0 Z " fill="#929293" transform="translate(801,771)"/>
<path d="M0 0 C0.66 0.33 1.32 0.66 2 1 C-0.4824356 4.84777518 -0.4824356 4.84777518 -3.125 5.625 C-3.74375 5.74875 -4.3625 5.8725 -5 6 C-5.33 6.66 -5.66 7.32 -6 8 C-7.32 7.67 -8.64 7.34 -10 7 C-6.7 4.69 -3.4 2.38 0 0 Z " fill="#919191" transform="translate(867,727)"/>
<path d="M0 0 C0.66 0.33 1.32 0.66 2 1 C0.6875 3 0.6875 3 -1 5 C-1.99 5 -2.98 5 -4 5 C-4.33 5.99 -4.66 6.98 -5 8 C-6.65 8 -8.3 8 -10 8 C-6.97727468 4.74475735 -3.74281699 2.38179263 0 0 Z " fill="#7E7D7E" transform="translate(818,564)"/>
<path d="M0 0 C1.98 0 3.96 0 6 0 C6 0.66 6 1.32 6 2 C6.66 2 7.32 2 8 2 C8.66 3.65 9.32 5.3 10 7 C5.56541027 5.6062718 3.12621626 3.39417765 0 0 Z " fill="#ADADAD" transform="translate(303,525)"/>
<path d="M0 0 C-0.93322896 3.22388187 -1.41299771 4.66015657 -4.375 6.375 C-7.13945539 7.03320367 -8.34311004 6.78010812 -11 6 C-9.54550599 4.9944239 -8.08627557 3.99569565 -6.625 3 C-5.40683594 2.1646875 -5.40683594 2.1646875 -4.1640625 1.3125 C-2 0 -2 0 0 0 Z " fill="#9E9D9E" transform="translate(530,306)"/>
<path d="M0 0 C-0.33 0.99 -0.66 1.98 -1 3 C-1.66 3 -2.32 3 -3 3 C-3.33 3.99 -3.66 4.98 -4 6 C-6.31 6.33 -8.62 6.66 -11 7 C-4.48275862 0 -4.48275862 0 0 0 Z " fill="#969596" transform="translate(505,322)"/>
<path d="M0 0 C0.66 0.33 1.32 0.66 2 1 C-0.57784846 3.64752004 -2.91648098 5.94432065 -6 8 C-7.32 7.67 -8.64 7.34 -10 7 C-6.7 4.69 -3.4 2.38 0 0 Z " fill="#696869" transform="translate(768,597)"/>
<path d="M0 0 C0.66 0.33 1.32 0.66 2 1 C-3.53846154 6.84615385 -3.53846154 6.84615385 -7 8 C-7.99 7.67 -8.98 7.34 -10 7 C-6.7 4.69 -3.4 2.38 0 0 Z " fill="#7A787A" transform="translate(797,578)"/>
<path d="M0 0 C1 3 1 3 1 5 C0.34 5 -0.32 5 -1 5 C-1.99 8.3 -2.98 11.6 -4 15 C-5.09319392 10.62722433 -4.82044542 9.77048811 -3.125 5.8125 C-2.75632812 4.93207031 -2.38765625 4.05164063 -2.0078125 3.14453125 C-1 1 -1 1 0 0 Z " fill="#7F7D7F" transform="translate(293,466)"/>
<path d="M0 0 C0.66 0.33 1.32 0.66 2 1 C1.5 2.875 1.5 2.875 0 5 C-2.65177645 5.98494554 -5.20547307 6.45912382 -8 7 C-5.4837822 4.39391727 -2.94865641 2.10618315 0 0 Z " fill="#828283" transform="translate(811,764)"/>
<path d="M0 0 C0.66 0.33 1.32 0.66 2 1 C-1.17320782 4.53586014 -3.16743695 6.58578031 -8 7 C-5.4837822 4.39391727 -2.94865641 2.10618315 0 0 Z " fill="#939294" transform="translate(673,660)"/>
<path d="M0 0 C0.66 0.33 1.32 0.66 2 1 C1.4375 2.9375 1.4375 2.9375 0 5 C-3.625 5.75 -3.625 5.75 -7 6 C-4.74259377 3.66475218 -2.7194239 1.81294927 0 0 Z " fill="#888788" transform="translate(841,549)"/>
<path d="M0 0 C0 0.66 0 1.32 0 2 C-0.99 2.33 -1.98 2.66 -3 3 C-4.37195574 4.29355827 -5.71182656 5.62298702 -7 7 C-7.66 6.34 -8.32 5.68 -9 5 C-7.87926138 4.16094435 -6.75325453 3.32892169 -5.625 2.5 C-4.99851562 2.0359375 -4.37203125 1.571875 -3.7265625 1.09375 C-2 0 -2 0 0 0 Z " fill="#818081" transform="translate(763,798)"/>
<path d="M0 0 C0.66 0.33 1.32 0.66 2 1 C-0.13478166 4.20217249 -1.62795029 5.27285259 -5 7 C-5.99 7 -6.98 7 -8 7 C-5.36 4.69 -2.72 2.38 0 0 Z " fill="#8D8D8E" transform="translate(308,450)"/>
<path d="M0 0 C0.66 0.33 1.32 0.66 2 1 C0.875 3.5 0.875 3.5 -1 6 C-4.1875 6.3125 -4.1875 6.3125 -7 6 C-4.74259377 3.66475218 -2.7194239 1.81294927 0 0 Z " fill="#969596" transform="translate(545,295)"/>
<path d="M0 0 C0.66 0.33 1.32 0.66 2 1 C1.4375 2.9375 1.4375 2.9375 0 5 C-3.625 5.75 -3.625 5.75 -7 6 C-4.74259377 3.66475218 -2.7194239 1.81294927 0 0 Z " fill="#7F7E7F" transform="translate(789,779)"/>
<path d="M0 0 C0.66 0.33 1.32 0.66 2 1 C1.67 1.99 1.34 2.98 1 4 C-0.84765625 4.73046875 -0.84765625 4.73046875 -3.0625 5.1875 C-3.79597656 5.34605469 -4.52945313 5.50460937 -5.28515625 5.66796875 C-6.13400391 5.83232422 -6.13400391 5.83232422 -7 6 C-4.74259377 3.66475218 -2.7194239 1.81294927 0 0 Z " fill="#969596" transform="translate(878,525)"/>
<path d="M0 0 C0.66 0.33 1.32 0.66 2 1 C-0.83430453 4.2542015 -2.68607774 5.5206753 -7 6 C-4.74259377 3.66475218 -2.7194239 1.81294927 0 0 Z " fill="#7F7E7F" transform="translate(861,536)"/>
<path d="M0 0 C-1 3 -1 3 -4 5 C-6.1875 4.625 -6.1875 4.625 -8 4 C-2.25 0 -2.25 0 0 0 Z " fill="#838283" transform="translate(469,345)"/>
<path d="M0 0 C-0.66 1.65 -1.32 3.3 -2 5 C-3.98 5 -5.96 5 -8 5 C-3.22727273 0 -3.22727273 0 0 0 Z " fill="#999899" transform="translate(538,301)"/>
<path d="M0 0 C0 0.99 0 1.98 0 3 C-4.455 4.485 -4.455 4.485 -9 6 C-3.2 0 -3.2 0 0 0 Z " fill="#5B5A5B" transform="translate(751,806)"/>
<path d="M0 0 C1 3 1 3 0.0625 5.1875 C-0.4634375 6.0846875 -0.4634375 6.0846875 -1 7 C-1.99 7 -2.98 7 -4 7 C-3.39816251 4.97954558 -2.72693904 2.97888961 -2 1 C-1.34 0.67 -0.68 0.34 0 0 Z " fill="#939294" transform="translate(295,655)"/>
<path d="M0 0 C0 0.99 0 1.98 0 3 C-2.31 3.33 -4.62 3.66 -7 4 C-3.375 0 -3.375 0 0 0 Z " fill="#9C9C9D" transform="translate(439,365)"/>
</svg>
